<svg width="67" height="67" viewBox="0 0 67 67" fill="none" xmlns="http://www.w3.org/2000/svg">
<g clip-path="url(#clip0_159_99)">
<path d="M67 51.8915C66.0249 52.2603 64.9485 52.2595 63.9739 51.8892C62.9994 51.5189 62.194 50.8048 61.7098 49.8815L52.0786 36.5624L50.6827 34.7004L39.5077 49.8982C39.0526 50.7828 38.2909 51.4713 37.3651 51.8351C36.4393 52.1988 35.4126 52.2129 34.4771 51.8747L48.8765 32.5564L35.4821 15.1057C36.4452 14.7586 37.4985 14.754 38.4646 15.0927C39.4307 15.4313 40.2506 16.0925 40.7863 16.9649L50.7693 30.4487L60.8081 17.0208C61.2667 16.152 62.0286 15.482 62.9489 15.1382C63.8691 14.7943 64.8837 14.8007 65.7996 15.1559L60.6015 22.0542L53.5609 31.2192C53.3654 31.3936 53.209 31.6074 53.1018 31.8465C52.9947 32.0856 52.9393 32.3446 52.9393 32.6067C52.9393 32.8687 52.9947 33.1277 53.1018 33.3668C53.209 33.6059 53.3654 33.8197 53.5609 33.9941L66.9721 51.8943L67 51.8915ZM0.00561682 32.3163L1.17812 26.5236C4.3997 15.0694 17.5317 10.304 26.5655 17.3949C31.8557 21.5517 33.1762 27.4365 32.9166 34.0695H3.11553C2.63258 45.9145 11.1807 53.0668 22.11 49.4125C23.8818 48.7747 25.4677 47.7074 26.7257 46.3062C27.9836 44.905 28.8744 43.2137 29.3181 41.3837C29.896 39.5244 30.8479 39.2062 32.5955 39.7422C32.3043 42.0101 31.5026 44.1824 30.2507 46.0958C28.9988 48.0091 27.3294 49.6137 25.3679 50.7888C22.1279 52.561 18.4106 53.2634 14.7474 52.7956C11.0841 52.3278 7.6626 50.7137 4.97199 48.1842C2.31162 45.1898 0.703746 41.4074 0.393658 37.4139C0.393658 36.7579 0.170325 36.1437 0.0195752 35.5547C0.00598541 34.4762 -0.000528622 33.3977 3.34896e-05 32.3191L0.00561682 32.3163ZM3.15182 31.5179H30.1026C29.9351 22.9307 24.5164 16.8393 17.2888 16.7835C9.24324 16.6718 3.48683 22.6292 3.13228 31.4788L3.15182 31.5179Z" fill="url(#paint0_linear_159_99)"/>
</g>
<defs>
<linearGradient id="paint0_linear_159_99" x1="-26.9819" y1="-80.9861" x2="34.5691" y2="170.97" gradientUnits="userSpaceOnUse">
<stop stop-color="white"/>
<stop offset="1" stop-color="#4B4B4B" stop-opacity="0.23"/>
</linearGradient>
<clipPath id="clip0_159_99">
<rect width="67" height="67" fill="white"/>
</clipPath>
</defs>
</svg>
