<svg width="128" height="128" viewBox="0 0 128 128" fill="none" xmlns="http://www.w3.org/2000/svg">
<path d="M127.75 44.9005H79.0493L64 0.25L48.955 44.9005H0.25L39.6496 72.5L24.6004 117.146L64 89.5489L103.4 117.146L88.3504 72.5L127.75 44.9005Z" fill="url(#paint0_linear_175_11)"/>
<path d="M94.2472 39.231L102.59 14.8212L80.407 30.1445L83.5117 39.231H94.2472ZM55.3129 102.324L63.9999 127.75L72.6912 102.324L63.9999 96.3234L55.3129 102.324ZM103.695 68.9024L95.5668 74.5167L99.0178 84.6147H126.439L103.695 68.9024ZM47.5885 30.1445L25.4099 14.8212L33.7527 39.231H44.4882L47.5885 30.1445ZM24.3049 68.9024L1.56104 84.6147H28.9799L32.433 74.5167L24.3049 68.9024Z" fill="url(#paint1_linear_175_11)"/>
<defs>
<linearGradient id="paint0_linear_175_11" x1="-53.5391" y1="-144.044" x2="102.922" y2="242.272" gradientUnits="userSpaceOnUse">
<stop stop-color="white"/>
<stop offset="1" stop-color="white" stop-opacity="0"/>
</linearGradient>
<linearGradient id="paint1_linear_175_11" x1="-51.1218" y1="-124.575" x2="98.5375" y2="250.06" gradientUnits="userSpaceOnUse">
<stop stop-color="white"/>
<stop offset="1" stop-color="white" stop-opacity="0"/>
</linearGradient>
</defs>
</svg>
