<svg width="57" height="65" viewBox="0 0 57 65" fill="none" xmlns="http://www.w3.org/2000/svg">
<path fill-rule="evenodd" clip-rule="evenodd" d="M26.8317 11.3398C27.8636 11.6518 28.9622 11.6687 30.0032 11.3885L47.1361 41.6731C46.3429 42.4373 45.7855 43.413 45.5301 44.4844H11.4646C11.1905 43.3595 10.587 42.342 9.73131 41.5621L26.829 11.3398H26.8317ZM24.3373 9.80959C24.3861 9.86376 24.4403 9.91521 24.4917 9.96667L7.3561 40.2594C7.27529 40.2377 7.19402 40.2179 7.11235 40.1998V24.7975C7.89143 24.6232 8.62565 24.2885 9.26821 23.8148C9.91078 23.341 10.4476 22.7386 10.8444 22.0458C11.2397 21.357 11.4892 20.5945 11.5778 19.8053C11.6663 19.0161 11.5918 18.2172 11.359 17.4579L24.3373 9.8123V9.80959ZM34.0061 7.54813C34.2806 6.68633 34.349 5.77214 34.2058 4.87909C34.0626 3.98604 33.7119 3.13905 33.1817 2.40627C32.6515 1.67348 31.9568 1.07535 31.1534 0.659985C30.3499 0.244618 29.4602 0.0236122 28.5558 0.0147433C27.6514 0.00587427 26.7575 0.20939 25.9461 0.608921C25.1346 1.00845 24.4283 1.59284 23.8839 2.31509C23.3395 3.03734 22.9721 3.87728 22.8115 4.76735C22.6508 5.65742 22.7013 6.57278 22.9588 7.4398L9.97235 15.0935C9.34914 14.4544 8.58617 13.9685 7.74342 13.6742C6.90067 13.3798 6.00112 13.2849 5.1155 13.397C4.22988 13.509 3.38232 13.825 2.63948 14.3201C1.89664 14.8151 1.27877 15.4758 0.83443 16.25C0.390653 17.0252 0.131528 17.8923 0.0771764 18.7839C0.0228245 19.6755 0.174709 20.5676 0.521035 21.391C0.867361 22.2143 1.39881 22.9468 2.07411 23.5315C2.74941 24.1162 3.55039 24.5374 4.41485 24.7623V40.2404C3.55227 40.4676 2.75351 40.8902 2.08039 41.4754C1.40726 42.0607 0.877801 42.793 0.532981 43.6156C0.188161 44.4383 0.0372225 45.3292 0.0918429 46.2196C0.146463 47.1099 0.405178 47.9757 0.847972 48.75C1.2917 49.5224 1.90825 50.1815 2.64933 50.6757C3.39041 51.17 4.23587 51.4859 5.11945 51.5987C6.00304 51.7115 6.90075 51.6181 7.74223 51.326C8.5837 51.0338 9.34609 50.5507 9.96964 49.9146L22.9561 57.5683C22.8009 58.1007 22.7224 58.6524 22.7232 59.2069C22.7214 59.9668 22.8695 60.7196 23.159 61.4222C23.4485 62.1248 23.8737 62.7634 24.4102 63.3015C24.9468 63.8395 25.5842 64.2665 26.286 64.558C26.9878 64.8495 27.7402 64.9997 28.5001 65C29.4247 64.998 30.3354 64.7746 31.156 64.3484C31.9766 63.9223 32.6832 63.3059 33.2167 62.5507C33.7502 61.7955 34.0951 60.9235 34.2226 60.0077C34.35 59.0919 34.2563 58.1588 33.9492 57.2867L46.8165 49.7033C47.423 50.3888 48.1841 50.92 49.0367 51.2529C49.8893 51.5858 50.809 51.7108 51.7195 51.6177C52.63 51.5245 53.5053 51.2158 54.2728 50.7171C55.0403 50.2184 55.6781 49.5441 56.1332 48.75C56.5894 47.963 56.8539 47.0795 56.905 46.1713C56.9561 45.263 56.7925 44.3554 56.4275 43.5222C56.0624 42.6889 55.5062 41.9534 54.8038 41.3752C54.1014 40.7971 53.2727 40.3925 52.3848 40.1944V24.811C53.2735 24.6126 54.1031 24.2083 54.8069 23.6306C55.5107 23.0529 56.069 22.318 56.4368 21.4851C56.8046 20.6522 56.9717 19.7446 56.9246 18.8353C56.8776 17.926 56.6176 17.0405 56.1657 16.25C55.7159 15.4691 55.0897 14.8042 54.337 14.3085C53.5844 13.8129 52.7262 13.5002 51.8311 13.3954C50.9361 13.2907 50.0289 13.3968 49.1821 13.7053C48.3354 14.0138 47.5726 14.5161 46.9546 15.1721L34.0088 7.54542L34.0061 7.54813ZM32.3838 10.0858L32.5869 9.89084L45.6086 17.5635C45.3963 18.3091 45.3356 19.0896 45.43 19.859C45.5244 20.6284 45.7721 21.3711 46.1584 22.0431C46.5369 22.7066 47.044 23.2879 47.6499 23.7529C48.2559 24.218 48.9485 24.5575 49.6873 24.7515V40.2431C49.6165 40.2625 49.5461 40.2833 49.4761 40.3054L32.3838 10.0858V10.0858ZM45.6411 47.6179L32.7115 55.2392C32.1727 54.6625 31.521 54.2028 30.797 53.8888C30.0729 53.5747 29.292 53.413 28.5028 53.4138C26.8615 53.4138 25.3828 54.0963 24.3319 55.1958L11.3726 47.5583C11.4051 47.4527 11.4348 47.3471 11.4592 47.2388H45.5355C45.568 47.366 45.6032 47.4933 45.6438 47.6179H45.6411Z" fill="url(#paint0_linear_159_102)"/>
<defs>
<linearGradient id="paint0_linear_159_102" x1="-22.8344" y1="-158.866" x2="151.534" y2="203.545" gradientUnits="userSpaceOnUse">
<stop stop-color="white"/>
<stop offset="1" stop-color="#4B4B4B" stop-opacity="0.23"/>
</linearGradient>
</defs>
</svg>
