<svg width="56" height="64" viewBox="0 0 56 64" fill="none" xmlns="http://www.w3.org/2000/svg">
<path d="M30.1625 23.4641L22.2466 0H55.8772L47.9339 23.5324C47.5921 23.6145 47.2561 23.7191 46.928 23.8455L39.0812 7.76662L31.2116 23.7504C30.8687 23.6312 30.5182 23.5356 30.1625 23.4641ZM4.29957 61.8741C14.8775 69.3373 26.6105 54.8961 42.5924 53.0769C51.7702 52.5306 58.0083 46.8871 54.4539 38.1507C47.8453 42.2394 41.669 36.8816 41.7122 31.5054H36.6905C36.5256 36.3052 32.9312 40.0815 27.3597 39.5201C22.9987 46.0733 17.9443 49.7551 12.2091 51.6266C8.33281 49.8298 4.68497 45.4529 6.33884 39.6069C5.61916 39.5262 4.91362 39.3483 4.24133 39.078C-1.09012 49.0779 -1.74893 56.9809 4.29957 61.8741V61.8741ZM12.1745 31.5061C12.1745 27.708 8.05306 25.3214 4.77382 27.2204C1.49459 29.1194 1.49434 33.8929 4.77382 35.7918C8.05306 37.6909 12.1745 35.3042 12.1745 31.5061ZM33.5053 31.459C33.5053 27.661 29.3837 25.2742 26.1045 27.1734C22.8252 29.0725 22.8251 33.8458 26.1045 35.7446C29.3838 37.6438 33.5052 35.2571 33.5052 31.459H33.5053ZM54.7559 31.459C54.7559 27.661 50.6343 25.2742 47.3551 27.1734C44.0759 29.0725 44.0758 33.8458 47.3551 35.7446C50.6345 37.6438 54.7558 35.2571 54.7558 31.459H54.7559Z" fill="url(#paint0_linear_161_138)"/>
<defs>
<linearGradient id="paint0_linear_161_138" x1="-22.5025" y1="-156.471" x2="149.463" y2="200.14" gradientUnits="userSpaceOnUse">
<stop stop-color="white"/>
<stop offset="1" stop-color="#4B4B4B" stop-opacity="0.23"/>
</linearGradient>
</defs>
</svg>
