<svg width="30" height="66" viewBox="0 0 30 66" fill="none" xmlns="http://www.w3.org/2000/svg">
<path d="M28.8054 26.1745C25.3609 10.8845 17.2363 5.86025 16.3636 3.938C15.6077 2.74073 14.9588 1.4781 14.4245 0.165L14.3645 0C14.3645 0.05225 14.3645 0.08525 14.3509 0.13475V0.53075V0.528V0.58575L14.3536 0.616L14.3509 0.64625V0.78925L14.3263 0.92675V1.1H14.3127V1.144H14.2145V1.30075H14.1982V1.42725H14.1327V1.60325L14.07 1.65L14.0563 1.66925V1.72975H14.0427V1.77925H14.0263V1.903H14.01V1.95525H13.9963V2.00475H13.9827V2.06525H13.86V2.1065H13.8463V2.15875H13.8327V2.2H13.8163V2.26325H13.8027V2.299C13.7536 2.32304 13.7086 2.35457 13.6691 2.3925L13.6445 2.42C13.6363 2.431 13.6445 2.42 13.6445 2.42V2.5795H13.6309V2.5575H13.6173V2.585H13.6036V2.607H13.59V2.6675H13.4236V2.695H13.3963V2.75H13.3145V2.7775H13.3009V2.794H13.2736V2.8215H13.1918V2.838H13.1782V2.9975H13.1618V3.025H13.1482V3.0415H13.1345V3.058L13.0963 3.102L13.0636 3.1295C13.0264 3.15664 12.9909 3.18602 12.9573 3.2175L12.8973 3.26425L12.7636 3.3715L12.5618 3.542C12.4063 3.67125 12.2427 3.817 12.0545 3.97925C11.5936 4.38625 11.0454 4.90875 10.4182 5.54125L10.3773 5.5825C4.06087 12.3407 0.439597 21.2113 0.207251 30.4948V30.5443C0.152753 31.6199 0.159127 32.6978 0.226342 33.7728L0.223615 33.6903V33.715C0.503512 38.3748 1.86358 42.9035 4.19452 46.937L4.11816 46.794C4.95816 48.279 5.79271 49.5413 6.70361 50.7403L6.64361 50.6578C8.57825 53.2535 10.8567 55.5695 13.4154 57.541L13.5 57.6043C14.3002 60.0791 14.6693 62.6749 14.5909 65.2768V65.2465L16.3473 65.8378C16.1508 63.4719 16.2047 61.0916 16.5082 58.7373L16.4918 58.905C16.6691 58.1983 16.9991 57.585 17.4463 57.079L17.4436 57.0845C18.2563 56.4988 18.9682 55.9185 19.6418 55.2943L19.6254 55.3108C19.6745 55.2585 19.7018 55.2118 19.7454 55.1623C22.8601 52.2268 25.3424 48.6766 27.038 44.7324C28.7337 40.7882 29.6064 36.5343 29.6018 32.2355C29.6018 30.0328 29.3782 27.885 28.95 25.8088L28.9854 26.0123L28.8054 26.1745Z" fill="url(#paint0_linear_159_97)"/>
<defs>
<linearGradient id="paint0_linear_159_97" x1="-11.6817" y1="-160.964" x2="213.991" y2="78.6493" gradientUnits="userSpaceOnUse">
<stop stop-color="white"/>
<stop offset="1" stop-color="#4B4B4B" stop-opacity="0.23"/>
</linearGradient>
</defs>
</svg>
