<svg width="68" height="68" viewBox="0 0 68 68" fill="none" xmlns="http://www.w3.org/2000/svg">
<path d="M50.4666 63.7606C50.2138 63.8945 50.235 63.937 50.4772 63.8137C50.5519 63.7833 50.6203 63.7393 50.6791 63.6841C50.6791 63.6395 50.6791 63.6395 50.4666 63.7606V63.7606ZM50.9766 63.4844C50.8555 63.5842 50.8555 63.5842 51 63.5184C51.0534 63.4934 51.1022 63.4596 51.1445 63.4185C51.1445 63.3611 51.1105 63.3739 50.9766 63.4844V63.4844ZM51.3081 63.2846C51.187 63.3845 51.187 63.3845 51.3315 63.3186C51.3851 63.2931 51.434 63.2586 51.476 63.2166C51.476 63.1635 51.442 63.1741 51.3081 63.2846ZM51.6439 63.087C51.5227 63.1869 51.5228 63.1869 51.663 63.1189C51.7416 63.0764 51.8075 63.0317 51.8075 63.019C51.8075 62.9659 51.7735 62.9765 51.6439 63.087ZM52.0965 62.7874C51.8649 62.9425 51.7841 63.0424 51.9966 62.9319C52.139 62.8447 52.3812 62.6535 52.3387 62.6535C52.2474 62.6875 52.1709 62.7449 52.0944 62.7874H52.0965ZM31.7751 0.0233703C31.62 0.0339953 31.1546 0.0764953 30.7466 0.110495C21.0821 0.985995 12.0403 6.188 6.30913 14.2014C3.14195 18.5964 1.08324 23.6914 0.308125 29.053C0.034 30.923 0 31.4755 0 34.0106C0 36.5436 0.034 37.0876 0.308125 38.9576C2.159 51.731 11.2455 62.4537 23.562 66.4275C25.7784 67.1351 28.101 67.6239 30.7466 67.9235C31.7751 68.034 36.2228 68.034 37.2513 67.9235C41.8243 67.4135 45.6854 66.2851 49.5061 64.3365C50.0926 64.039 50.2031 63.9604 50.1245 63.8945C48.2606 61.4307 46.4126 58.955 44.5804 56.4676L39.1468 49.13L32.3404 39.0469C30.0763 35.6708 27.7891 32.3104 25.4787 28.9659C25.4554 28.9659 25.4256 33.4475 25.4129 38.913C25.3895 48.4861 25.3895 48.875 25.2684 49.096C25.1522 49.363 24.9441 49.5794 24.6819 49.7059C24.4715 49.8057 24.2824 49.827 23.2773 49.827H22.1276L21.828 49.64C21.6403 49.5196 21.4878 49.3517 21.386 49.1534L21.2415 48.8537L21.2521 35.5279L21.2755 22.202L21.4859 21.9364C21.6202 21.7731 21.7856 21.638 21.9725 21.539C22.2509 21.4051 22.3614 21.3839 23.511 21.3839C24.8604 21.3839 25.0835 21.437 25.4384 21.8259C28.1956 25.9269 30.9291 30.0438 33.6387 34.1764C38.0566 40.8744 44.0874 50.014 47.0518 54.4977L52.4429 62.6556L52.7085 62.4792C55.2994 60.7575 57.6473 58.6955 59.6891 56.3486C63.9722 51.4464 66.7514 45.4136 67.694 38.9725C67.9681 37.1025 68.0021 36.5479 68.0021 34.0149C68.0021 31.4797 67.9681 30.9379 67.694 29.0679C65.8431 16.2945 56.7566 5.57175 44.4401 1.59587C42.1383 0.866827 39.7691 0.370633 37.3681 0.114745C36.7242 0.0488703 32.3298 -0.0297547 31.7773 0.0276203L31.7751 0.0233703ZM45.6875 20.587C45.8456 20.6646 45.9866 20.773 46.1023 20.9059C46.2179 21.0387 46.3059 21.1932 46.3611 21.3605C46.4185 21.539 46.4291 25.2344 46.4185 33.558L46.3951 45.509L44.2935 42.279L42.1791 39.0469V30.3705C42.1791 24.7456 42.2025 21.5921 42.2323 21.437C42.3363 21.0813 42.5749 20.7802 42.8974 20.5976C43.1609 20.4637 43.2629 20.4531 44.3148 20.4531C45.2986 20.4531 45.4644 20.4637 45.6854 20.587H45.6875Z" fill="url(#paint0_linear_156_88)"/>
<defs>
<linearGradient id="paint0_linear_156_88" x1="-27.3854" y1="-166.239" x2="139.62" y2="230.45" gradientUnits="userSpaceOnUse">
<stop stop-color="white"/>
<stop offset="1" stop-color="#4B4B4B" stop-opacity="0.23"/>
</linearGradient>
</defs>
</svg>
