<svg width="58" height="66" viewBox="0 0 58 66" fill="none" xmlns="http://www.w3.org/2000/svg">
<path d="M28.7885 65.4512C27.8947 65.4512 27.0595 65.2107 26.2795 64.7947L18.3527 60.0887C17.1665 59.429 17.7612 59.1885 18.1187 59.0682C19.7307 58.532 20.0297 58.415 21.697 57.466C21.879 57.3457 22.1162 57.401 22.2982 57.5212L28.3757 61.1612C28.6162 61.2782 28.9152 61.2782 29.094 61.1612L52.8807 47.391C53.1212 47.274 53.2382 47.0335 53.2382 46.7345V19.246C53.2382 18.9502 53.1212 18.7097 52.8807 18.5927L29.094 4.88098C28.8567 4.76073 28.5577 4.76073 28.3757 4.88098L4.5825 18.5895C4.34525 18.7065 4.225 19.0087 4.225 19.2427V46.728C4.225 46.9652 4.34525 47.2675 4.5825 47.3845L11.0825 51.1447C14.599 52.9257 16.809 50.836 16.809 48.756V21.6315C16.809 21.274 17.1048 20.9132 17.524 20.9132H20.566C20.917 20.9132 21.281 21.2122 21.281 21.6315V48.7592C21.281 53.4685 18.72 56.2147 14.248 56.2147C12.8765 56.2147 11.804 56.2147 8.762 54.7197L2.50575 51.148C1.74349 50.7049 1.11088 50.0694 0.671164 49.3052C0.231444 48.541 1.2523e-05 47.6747 0 46.793V19.3045C0 17.517 0.95225 15.8465 2.50575 14.9527L26.2827 1.18248C27.0546 0.769684 27.9164 0.553711 28.7917 0.553711C29.6671 0.553711 30.5289 0.769684 31.3007 1.18248L55.081 14.9527C56.6377 15.8432 57.5867 17.517 57.5867 19.3045V46.793C57.5867 48.5772 56.6345 50.2477 55.081 51.148L31.3007 64.915C30.5175 65.2725 29.6237 65.4512 28.7885 65.4512ZM36.1205 46.5492C25.688 46.5492 23.543 41.7782 23.543 37.7287C23.543 37.3712 23.842 37.0105 24.258 37.0105H27.3585C27.716 37.0105 28.0117 37.2477 28.0117 37.6085C28.4895 40.7642 29.8577 42.3177 36.1822 42.3177C41.1872 42.3177 43.3387 41.1802 43.3387 38.499C43.3387 36.9487 42.7375 35.8177 34.931 35.0442C28.4343 34.3942 24.3815 32.9545 24.3815 27.7707C24.3815 22.9445 28.4342 20.0812 35.2332 20.0812C42.861 20.0812 46.618 22.7105 47.0925 28.4272C47.0868 28.6202 47.0234 28.807 46.9105 28.9635C46.7902 29.0805 46.6147 29.2007 46.436 29.2007H43.3387C43.1856 29.1975 43.038 29.1433 42.9191 29.0468C42.8002 28.9503 42.7169 28.8169 42.6822 28.6677C41.964 25.3787 40.118 24.3127 35.2332 24.3127C29.744 24.3127 29.0875 26.2205 29.0875 27.6505C29.0875 29.3762 29.8577 29.9125 37.258 30.868C44.59 31.8202 48.048 33.1917 48.048 38.3235C47.983 43.5722 43.6962 46.5492 36.1205 46.5492Z" fill="url(#paint0_linear_159_96)"/>
<defs>
<linearGradient id="paint0_linear_159_96" x1="-23.191" y1="-158.111" x2="149.421" y2="205.69" gradientUnits="userSpaceOnUse">
<stop stop-color="white"/>
<stop offset="1" stop-color="#4B4B4B" stop-opacity="0.23"/>
</linearGradient>
</defs>
</svg>
