<svg width="73" height="66" viewBox="0 0 73 66" fill="none" xmlns="http://www.w3.org/2000/svg">
<path d="M72.9867 32.6817C72.9867 27.8649 66.9551 23.2995 57.7062 20.47C59.8419 11.0454 58.8937 3.54454 54.7131 1.14219C53.7001 0.574835 52.5536 0.289255 51.3928 0.31515V3.61724C52.0744 3.61724 52.6228 3.75357 53.0832 4.00501C55.0978 5.16226 55.9733 9.56102 55.2917 15.223C55.1281 16.6166 54.8615 18.0828 54.5344 19.5794C51.4372 18.833 48.2937 18.2936 45.1249 17.9647C43.2371 15.3602 41.1776 12.8847 38.96 10.5547C43.7919 6.06504 48.327 3.60513 51.411 3.60513V0.300003C47.3334 0.300003 41.9985 3.20524 36.6031 8.24321C31.2107 3.23856 25.8728 0.360592 21.7982 0.360592V3.66269C24.867 3.66269 29.4172 6.11048 34.2492 10.5698C32.174 12.751 30.0989 15.223 28.1267 17.9647C24.9513 18.29 21.8023 18.8346 18.7021 19.5945C18.3744 18.1761 18.1166 16.7425 17.9296 15.2988C17.2328 9.63372 18.0932 5.23497 20.0956 4.0656C20.5379 3.79901 21.1165 3.67783 21.7982 3.67783V0.375739C20.5561 0.375739 19.4261 0.64233 18.4506 1.20278C14.2852 3.60513 13.3521 11.0879 15.5 20.4852C6.28136 23.3329 0.280029 27.8801 0.280029 32.6817C0.280029 37.4986 6.31165 42.0639 15.5605 44.8904C13.4248 54.318 14.373 61.8189 18.5536 64.2183C19.517 64.7817 20.644 65.0483 21.886 65.0483C25.9637 65.0483 31.2985 62.1431 36.694 57.1051C42.0864 62.1128 47.4212 64.9877 51.4988 64.9877C52.6685 65.0124 53.8238 64.726 54.8464 64.1577C59.0119 61.7583 59.9449 54.2756 57.7971 44.8783C66.9854 42.0488 72.9867 37.4834 72.9867 32.6817ZM53.6891 22.7967C53.1135 24.7775 52.4463 26.7305 51.6897 28.6495C50.4511 26.2404 49.0912 23.8956 47.6151 21.6243C49.7206 21.9363 51.7503 22.321 53.6922 22.7967H53.6891ZM46.9032 38.5801C45.7936 40.5173 44.6019 42.4063 43.3315 44.2421C38.885 44.634 34.4129 44.6391 29.9656 44.2572C27.4146 40.6134 25.1837 36.7556 23.2977 32.7272C25.1808 28.6892 27.4022 24.8179 29.9383 21.1547C34.3837 20.762 38.8547 20.7559 43.3012 21.1365C44.5311 22.8997 45.7338 24.784 46.888 26.7713C48.015 28.7101 49.0389 30.6793 49.972 32.6666C49.0286 34.678 48.0048 36.6508 46.9032 38.5801V38.5801ZM51.6897 36.6533C52.4895 38.6376 53.1741 40.6249 53.7346 42.5517C51.7957 43.0273 49.7478 43.4272 47.6302 43.7362C49.1003 41.4442 50.4551 39.0803 51.6897 36.6533V36.6533ZM36.6637 52.467C35.2853 51.0432 33.9069 49.4588 32.5436 47.7229C33.8766 47.7835 35.2398 47.829 36.6182 47.829C38.0118 47.829 39.3902 47.7987 40.7383 47.7229C39.4053 49.4588 38.0269 51.0432 36.6637 52.467ZM25.6365 43.7362C23.5939 43.4402 21.566 43.05 19.5594 42.5668C20.1077 40.6552 20.7894 38.6831 21.5588 36.7139C22.1678 37.8954 22.807 39.083 23.5038 40.2705C24.2005 41.455 24.9094 42.6123 25.6365 43.7362ZM36.5879 12.8964C37.9663 14.3203 39.3447 15.9047 40.708 17.6405C39.375 17.58 38.0118 17.5345 36.6334 17.5345C35.2398 17.5345 33.8614 17.5648 32.5133 17.6405C33.8463 15.9047 35.2247 14.3203 36.5879 12.8964ZM25.6213 21.6273C24.1517 23.9143 22.7968 26.2731 21.5619 28.695C20.784 26.7636 20.1015 24.7951 19.517 22.7967C21.4558 22.3362 23.5037 21.9363 25.6213 21.6273ZM12.21 40.1796C6.96298 37.9439 3.57001 35.0083 3.57001 32.6817C3.57001 30.3551 6.96298 27.4044 12.21 25.1839C13.4823 24.6355 14.8759 24.1448 16.3149 23.6873C17.1601 26.5895 18.2719 29.6129 19.6473 32.712C18.3487 35.6269 17.2505 38.627 16.3603 41.6913C14.953 41.2556 13.5679 40.751 12.21 40.1796V40.1796ZM20.1835 61.3554C18.1689 60.2042 17.2934 55.7994 17.975 50.1404C18.1386 48.7469 18.4052 47.2776 18.7324 45.7811C21.6346 46.493 24.8064 47.0413 28.1418 47.3988C30.0297 50.0032 32.0893 52.4787 34.3068 54.8088C29.4748 59.2984 24.9397 61.7583 21.8557 61.7583C21.2739 61.7647 20.6995 61.6273 20.1835 61.3585V61.3554ZM55.3372 50.0647C56.0339 55.7267 55.1736 60.1285 53.1711 61.2979C52.7288 61.5645 52.1502 61.6826 51.4686 61.6826C48.3997 61.6826 43.8495 59.2378 39.0175 54.7755C41.2258 52.4551 43.2715 49.9853 45.14 47.3836C48.3154 47.0584 51.4645 46.5138 54.5646 45.7538C54.907 47.2503 55.1705 48.6863 55.3372 50.0647V50.0647ZM61.0416 40.1796C59.7692 40.7279 58.3757 41.2187 56.9367 41.6762C56.0308 38.5962 54.9175 35.581 53.6043 32.6514C54.9676 29.5705 56.0612 26.5623 56.8913 23.6722C58.3031 24.1094 59.6931 24.6138 61.0567 25.1839C66.3037 27.4196 69.6967 30.3551 69.6967 32.6817C69.6816 35.0083 66.2886 37.959 61.0416 40.1796V40.1796Z" fill="url(#paint0_linear_150_6)"/>
<path d="M36.6182 39.4556C38.4147 39.4556 40.1377 38.742 41.408 37.4716C42.6784 36.2013 43.392 34.4783 43.392 32.6818C43.392 30.8853 42.6784 29.1623 41.408 27.892C40.1377 26.6216 38.4147 25.908 36.6182 25.908C34.8217 25.908 33.0987 26.6216 31.8284 27.892C30.558 29.1623 29.8444 30.8853 29.8444 32.6818C29.8444 34.4783 30.558 36.2013 31.8284 37.4716C33.0987 38.742 34.8217 39.4556 36.6182 39.4556V39.4556Z" fill="url(#paint1_linear_150_6)"/>
<defs>
<linearGradient id="paint0_linear_150_6" x1="-29" y1="-158" x2="60.8046" y2="124.749" gradientUnits="userSpaceOnUse">
<stop stop-color="white"/>
<stop offset="1" stop-color="#3C3C3C" stop-opacity="0.23"/>
</linearGradient>
<linearGradient id="paint1_linear_150_6" x1="24.3885" y1="-7.2141" x2="44.9957" y2="50.5657" gradientUnits="userSpaceOnUse">
<stop stop-color="white"/>
<stop offset="1" stop-color="#3C3C3C" stop-opacity="0.23"/>
</linearGradient>
</defs>
</svg>
