<svg width="68" height="65" viewBox="0 0 68 65" fill="none" xmlns="http://www.w3.org/2000/svg">
<path d="M47.1188 45.3954C49.6263 45.1354 51.5302 42.9565 51.4452 40.3424C51.4029 39.0859 50.8749 37.8945 49.9718 37.0174C49.0688 36.1404 47.8607 35.6457 46.6003 35.637H46.4246C43.7415 35.7217 41.6646 37.9883 41.7496 40.69C41.8403 41.9985 42.3588 43.1289 43.138 43.9117C40.1941 49.7533 35.6948 54.0207 28.943 57.5928C24.3587 60.0346 19.5988 60.905 14.8416 60.2946C10.9458 59.7717 7.91699 58.028 6.013 55.1539C3.24485 50.8865 2.98702 46.2659 5.32167 41.648C6.965 38.3387 9.56315 35.897 11.2065 34.6789C10.7608 33.2158 10.3854 31.7323 10.0816 30.2335C-2.46712 39.3843 -1.16662 51.757 2.63569 57.5956C5.49167 61.9535 11.2886 64.6552 17.6948 64.6552C19.4437 64.667 21.1872 64.462 22.8854 64.0448C33.9637 61.8687 42.356 55.2443 47.1159 45.3983L47.1188 45.3954ZM62.3479 34.5913C55.7717 26.8365 46.0789 22.5663 35.0035 22.5663H33.618C33.2235 21.7818 32.6183 21.1221 31.8699 20.6605C31.1215 20.1989 30.2593 19.9537 29.3794 19.9522H29.2037C26.5234 20.0398 24.4437 22.3063 24.5316 25.008C24.6166 27.6222 26.7812 29.7107 29.3765 29.7107H29.5522C30.4662 29.6635 31.3484 29.3607 32.098 28.8369C32.8475 28.3132 33.4342 27.5896 33.7908 26.7489H35.3492C41.9253 26.7489 48.1558 28.665 53.7799 32.4124C58.1064 35.2893 61.223 39.0339 62.9514 43.567C64.4247 47.2239 64.3397 50.7961 62.7814 53.8483C60.356 58.4661 56.2902 60.9926 50.9239 60.9926C47.4644 60.9926 44.175 59.947 42.4438 59.1613C41.1982 60.2696 39.899 61.3165 38.5508 62.2983C42.271 64.042 46.0789 65 49.7141 65C58.0214 65 64.164 60.3822 66.5015 55.7644C69.009 50.7113 68.8361 41.9985 62.3479 34.5913ZM18.3889 46.8763C18.4739 49.4904 20.6386 51.5817 23.2339 51.5817H23.4067C26.0899 51.497 28.1667 49.2304 28.0817 46.5287C28.0393 45.2722 27.5113 44.0808 26.6083 43.2037C25.7053 42.3267 24.4971 41.832 23.2367 41.8233H23.0611C22.8553 41.8097 22.6489 41.8386 22.4547 41.908C18.9074 35.9846 17.4369 29.5383 17.9554 22.5663C18.3011 17.338 20.0323 12.8078 23.0611 9.06044C25.5714 5.8387 30.4164 4.27022 33.7058 4.18261C42.8773 4.00739 46.7703 15.5096 47.0309 20.1274C48.1558 20.3874 50.0598 20.9978 51.3574 21.433C50.3176 7.31956 41.6675 0 33.3573 0C25.5714 0 18.3889 5.66348 15.5329 14.0287C11.5521 25.1804 14.1475 35.897 18.9953 44.3498C18.5618 44.9602 18.3011 45.9183 18.3889 46.8763V46.8763Z" fill="url(#paint0_linear_157_92)"/>
<defs>
<linearGradient id="paint0_linear_157_92" x1="-27.3846" y1="-158.915" x2="127.227" y2="225.266" gradientUnits="userSpaceOnUse">
<stop stop-color="white"/>
<stop offset="1" stop-color="#4B4B4B" stop-opacity="0.23"/>
</linearGradient>
</defs>
</svg>
