<svg width="74" height="76" viewBox="0 0 74 76" fill="none" xmlns="http://www.w3.org/2000/svg">
<path d="M73.9196 46.6222C73.8758 46.4895 73.8154 46.3628 73.7398 46.245C73.2958 45.4116 72.217 45.1627 70.5223 45.5101C65.2418 46.5902 63.1971 45.9255 62.4558 45.4496C66.742 38.9636 70.2648 31.1299 72.1687 23.8222C73.0355 20.495 74.7181 12.6638 72.559 8.8388C72.4211 8.577 72.2598 8.32795 72.0771 8.09464C67.9588 2.87724 61.9147 0.0785378 54.5981 0.00158778C49.8242 -0.0484456 45.7494 1.09757 44.6456 1.51969C44.0989 1.41852 43.5494 1.33235 42.9979 1.26129C41.6153 1.01305 40.2144 0.877699 38.8094 0.856588C35.0336 0.798321 31.7707 1.69322 29.0687 3.51849C26.3305 2.50167 13.7737 -1.69068 6.00267 3.76802C1.66248 6.81657 -0.341052 12.2655 0.0473257 19.9636C0.177956 22.554 1.66631 30.5213 4.0151 38.1517C5.48366 42.9223 7.01322 46.7077 8.59324 49.4947C10.3595 52.643 12.1892 54.5401 14.0685 55.1614C15.4975 55.6336 17.6863 55.6178 20.0031 52.8564C22.5621 49.8053 25.0824 47.0747 26.214 45.8679C27.6036 46.6137 29.1089 47.0158 30.6535 47.0624C30.6538 47.0667 30.6542 47.071 30.6548 47.0754C30.3858 47.393 30.1226 47.7155 29.8652 48.0425C28.7828 49.4048 28.5577 49.6882 25.0737 50.3994C24.083 50.6021 21.4506 51.1401 21.4123 52.9692C21.4043 53.3568 21.5173 53.7003 21.7058 54.004C22.4305 55.3438 24.6493 55.9347 24.9476 56.0088C29.2098 57.0649 32.9464 56.3002 35.7155 53.8596C35.6612 60.9245 35.963 67.8481 36.8187 69.9697C37.5252 71.7206 39.2518 76.0006 44.705 76C45.5051 76 46.386 75.9078 47.3547 75.702C53.0459 74.492 55.5173 71.9983 56.4733 66.5C56.9533 63.7428 57.7559 57.3949 58.1941 53.5129C58.2481 53.2903 58.3082 53.1307 58.3762 53.0816C58.3784 53.08 58.5988 52.9324 59.7406 53.1788C59.7873 53.1888 59.8346 53.196 59.8821 53.2003L60.693 53.2709L60.7406 53.2741C63.4452 53.3957 66.8455 52.8225 68.825 51.9099C70.8813 50.9637 74.5923 48.641 73.9196 46.6222V46.6222ZM6.24604 37.6089C3.87138 29.8956 2.48395 22.1394 2.37408 19.9646C2.02722 13.0885 3.70625 8.30205 7.36391 5.73769C13.2301 1.62545 22.8217 4.02515 26.8722 5.32602C26.862 5.33615 26.8512 5.34534 26.8409 5.35579C20.3771 11.8285 20.5304 22.8865 20.5464 23.5625C20.5458 23.8232 20.5675 24.1924 20.5981 24.7003C20.7093 26.5601 20.9163 30.0216 20.3634 33.9419C19.8495 37.5849 20.982 41.1505 23.4704 43.7244C23.7278 43.9907 23.9968 44.2409 24.2746 44.4762C23.167 45.6523 20.7601 48.2527 18.1982 51.3086C16.3851 53.4698 15.1331 53.0556 14.7214 52.9194C13.4697 52.5056 12.1247 51.0603 10.767 48.7322C9.23521 46.0753 7.68968 42.2984 6.24604 37.6089V37.6089ZM25.4324 53.7181C24.8859 53.5825 24.3877 53.3596 24.052 53.1569C24.336 53.0322 24.8103 52.8713 25.5956 52.7108C29.6944 51.8744 30.3274 51.2839 31.7097 49.5435C32.0265 49.1445 32.3855 48.6926 32.8828 48.1419C32.9898 48.023 33.07 47.8829 33.1182 47.7309C33.6637 47.2517 33.9882 47.3828 34.5136 47.5988C35.0119 47.8034 35.4967 48.4221 35.6938 49.1036C35.7867 49.4253 35.8915 50.0362 35.5494 50.5109C32.6612 54.5192 28.4538 54.4673 25.4324 53.7181ZM32.1204 41.0894L31.9528 41.5359C31.528 42.6651 31.1329 43.7149 30.8879 44.7121C28.7563 44.7054 26.6822 43.8026 25.1054 42.1711C23.0999 40.0967 22.189 37.2109 22.6061 34.2532C23.19 30.1115 22.9744 26.505 22.8585 24.5676C22.8425 24.2963 22.8281 24.0588 22.8195 23.8713C23.7639 23.0413 28.1402 20.7167 31.2606 21.4254C32.6848 21.749 33.5526 22.7101 33.9132 24.364C35.7803 32.9261 34.1604 36.4946 32.8586 39.3623C32.5903 39.9532 32.337 40.5115 32.1204 41.0894V41.0894ZM55.6393 55.569C55.5854 56.1289 55.525 56.7597 55.442 57.456L54.9757 58.844C54.9386 58.954 54.919 59.069 54.9175 59.185C54.8987 60.6882 54.7451 61.2399 54.5502 61.9378C54.3477 62.6636 54.1181 63.4866 53.9772 65.2865C53.6259 69.7652 51.1724 72.3378 46.257 73.3821C41.4166 74.4116 40.5581 71.8089 39.8014 69.5134C39.724 69.2728 39.6421 69.0335 39.5558 68.7958C38.8679 66.9408 38.9455 64.3248 39.0531 60.7047C39.1058 58.9276 38.9736 54.6839 37.9985 52.3251C38.0125 51.3966 38.0323 50.4539 38.0592 49.501C38.0624 49.3803 38.0459 49.2599 38.0103 49.1445C37.9794 48.9219 37.9326 48.7018 37.8701 48.4858C37.4785 47.1295 36.5245 45.9949 35.3798 45.5246C34.925 45.3378 34.0901 44.9952 33.0872 45.2495C33.3012 44.3755 33.672 43.389 34.0742 42.3206L34.2431 41.8709C34.4331 41.3643 34.6711 40.8396 34.9234 40.2838C36.2856 37.2831 38.1512 33.1737 36.1262 23.8893C35.368 20.412 32.8352 18.7141 28.9962 19.1083C26.6943 19.3445 24.5889 20.2654 23.5384 20.7933C23.3278 20.8991 23.1193 21.009 22.9131 21.1229C23.2063 17.6193 24.3139 11.0716 28.4567 6.92899C28.7645 6.62155 29.0878 6.32984 29.4254 6.05499C29.5931 6.02257 29.7511 5.95284 29.8876 5.85105C32.2907 4.04415 35.2997 3.15749 38.8369 3.2148C40.1435 3.23602 41.3974 3.32215 42.5872 3.4713C48.7801 4.59357 52.9479 8.05284 55.4774 11.0165C58.0782 14.0638 59.4864 17.1329 60.0485 18.7885C55.8224 18.3622 52.9472 19.19 51.4898 21.2553C48.3196 25.7485 53.2241 34.4695 55.5815 38.6606C56.0137 39.4288 56.387 40.0925 56.5043 40.3747C57.2718 42.2193 58.2657 43.4505 58.9913 44.3495C59.2136 44.625 59.4295 44.8923 59.5934 45.1253C58.3133 45.4911 56.0137 46.3366 56.2232 50.5625C56.1839 51.0574 56.0881 51.9777 55.9568 53.1427C55.8096 53.8004 55.7326 54.6003 55.6393 55.569V55.569ZM58.4835 50.4355C58.3542 47.8021 59.343 47.5269 60.3893 47.2356C60.5341 47.1963 60.6778 47.1534 60.8205 47.107C60.9555 47.2256 61.0987 47.3346 61.2491 47.4332C63.0706 48.6254 66.3028 48.7673 70.8525 47.8588C70.2086 48.419 69.1952 49.1236 67.8078 49.7623C66.4989 50.3649 64.3082 50.8168 62.2271 50.9137C59.9284 51.0201 58.7588 50.6581 58.4835 50.4355V50.4355ZM60.3024 21.0767C60.2836 22.1876 60.1293 23.1958 59.9658 24.2488C59.7901 25.3812 59.6081 26.5522 59.5621 27.9734C59.5167 29.3566 59.6911 30.7946 59.8598 32.1854C60.2002 34.9942 60.5496 37.8863 59.197 40.7398C58.9725 40.3452 58.7724 39.9374 58.5979 39.5187C58.4295 39.1147 58.0648 38.4655 57.5595 37.5674C55.5934 34.0711 50.9884 25.8837 53.3458 22.5429C54.5579 20.8243 57.6282 20.7502 60.3024 21.0767V21.0767ZM61.0319 43.2868C60.9417 43.1729 60.8509 43.0595 60.7595 42.9467L60.6461 42.8061C62.9655 39.0076 62.512 35.2498 62.1083 31.9175C61.9425 30.5501 61.786 29.2587 61.8256 28.0459C61.8668 26.7599 62.0383 25.6573 62.2041 24.5908C62.4082 23.2766 62.6155 21.9171 62.5583 20.3142C62.6011 20.146 62.6183 19.9475 62.596 19.7119C62.45 18.1745 60.68 13.5749 57.0724 9.4107C55.1318 7.17092 52.3148 4.66957 48.4844 2.95229C50.1615 2.61472 52.4218 2.30787 54.9501 2.3636C61.5024 2.508 66.6864 4.93969 70.3581 9.5912C70.4361 9.69218 70.5073 9.79818 70.5711 9.9085C72.8806 14.2012 69.689 29.7797 61.0319 43.2868V43.2868ZM32.8726 23.9188C32.7928 24.4869 31.886 25.2567 30.8889 25.2567C30.8024 25.2568 30.7161 25.2508 30.6305 25.239C30.0323 25.1566 29.428 24.783 29.0147 24.2396C28.8684 24.048 28.6305 23.6759 28.6777 23.339C28.6953 23.212 28.7611 23.0271 28.9732 22.8678C29.3507 22.5847 30.0968 22.4795 30.9202 22.5932C31.9304 22.7329 32.9726 23.2069 32.8726 23.9188V23.9188ZM58.2018 22.616C58.2373 22.8668 58.0453 23.2525 57.7128 23.5983C57.4947 23.8254 57.0357 24.2193 56.41 24.3051C56.3307 24.3161 56.2506 24.3216 56.1705 24.3216C55.2331 24.3216 54.4413 23.5793 54.3797 23.1445C54.303 22.5856 55.2232 22.161 56.1718 22.0299C57.1204 21.8988 58.1236 22.0577 58.2018 22.616V22.616Z" fill="url(#paint0_linear_278_73)"/>
<defs>
<linearGradient id="paint0_linear_278_73" x1="-29.8009" y1="-185.809" x2="160.339" y2="253.924" gradientUnits="userSpaceOnUse">
<stop stop-color="white"/>
<stop offset="1" stop-color="#4B4B4B" stop-opacity="0.23"/>
</linearGradient>
</defs>
</svg>

