<svg width="65" height="65" viewBox="0 0 65 65" fill="none" xmlns="http://www.w3.org/2000/svg">
<path d="M0 32.5V65H65V0H0V32.5ZM52.3778 29.9081C53.9361 30.275 55.3522 31.0915 56.4505 32.2563C57.0436 32.89 57.9312 34.0539 58.0064 34.3403C58.0267 34.4256 55.2033 36.3187 53.4889 37.377C53.4259 37.4197 53.172 37.1556 52.8958 36.7412C52.0609 35.5245 51.1814 34.9964 49.8387 34.9009C47.8705 34.773 46.6009 35.8008 46.6111 37.5253C46.6008 37.9473 46.695 38.3653 46.8853 38.742C47.32 39.6419 48.1345 40.1802 50.6513 41.2709C55.3069 43.2697 57.2955 44.592 58.5325 46.4648C59.9178 48.5591 60.2245 51.9025 59.2942 54.3989C58.2583 57.0964 55.6969 58.9367 52.0995 59.54C50.9884 59.7411 48.3438 59.7086 47.1473 59.4872C44.5352 59.022 42.0591 57.7302 40.5356 56.0381C39.9323 55.382 38.7684 53.6575 38.8436 53.5417C38.8761 53.4991 39.1402 53.3305 39.4367 53.1598L41.8498 51.7623L43.7227 50.6736L44.1147 51.2545C44.6652 52.0894 45.8595 53.233 46.5806 53.6128C48.6545 54.7137 51.5003 54.5553 52.908 53.2959C53.4788 52.8206 53.7977 52.0894 53.755 51.35C53.755 50.5984 53.6595 50.2612 53.2675 49.6986C52.7597 48.9795 51.7339 48.3661 48.8028 47.0966C45.4492 45.6463 43.9989 44.7586 42.6888 43.3306C41.864 42.3907 41.254 41.2823 40.9012 40.0827C40.6575 39.1625 40.5945 36.855 40.7855 35.9348C41.4741 32.6869 43.9278 30.4342 47.45 29.768C48.5936 29.5466 51.2586 29.6298 52.3798 29.9061L52.3778 29.9081ZM37.1231 32.628L37.1434 35.2828H28.6792V59.3308H22.6911V35.2828H14.2391V32.6808C14.2391 31.2305 14.2716 30.0259 14.3122 29.9934C14.3447 29.9508 19.4858 29.9305 25.7278 29.9406L37.0906 29.9731L37.1231 32.628Z" fill="url(#paint0_linear_158_94)"/>
<defs>
<linearGradient id="paint0_linear_158_94" x1="-26.1764" y1="-158.915" x2="133.47" y2="220.274" gradientUnits="userSpaceOnUse">
<stop stop-color="white"/>
<stop offset="1" stop-color="#4B4B4B" stop-opacity="0.23"/>
</linearGradient>
</defs>
</svg>
